<svg xmlns="http://www.w3.org/2000/svg" width="512" height="760" viewBox="0 0 512 760" role="img" aria-label="Intrinsic Therapeutic Solutions">
  <defs>
    <linearGradient id="wingA" x1="0" x2="1" y1="0" y2="1"><stop offset="0" stop-color="#1f5cb8"/><stop offset=".35" stop-color="#109061"/><stop offset=".7" stop-color="#e77724"/><stop offset="1" stop-color="#9e2147"/></linearGradient>
    <linearGradient id="fire" x1="0" x2="1" y1="0" y2="1"><stop offset="0" stop-color="#f6b13c"/><stop offset=".45" stop-color="#e7651e"/><stop offset="1" stop-color="#167a55"/></linearGradient>
    <filter id="shadow" x="-20%" y="-20%" width="140%" height="140%"><feDropShadow dx="0" dy="8" stdDeviation="8" flood-color="#111" flood-opacity=".18"/></filter>
  </defs>
  <rect width="512" height="760" fill="#f7f6f4"/>
  <g filter="url(#shadow)" transform="translate(0 6)">
    <path d="M244 250C150 190 100 112 70 28c77 57 135 111 177 205z" fill="url(#wingA)"/>
    <path d="M268 250c94-60 144-138 174-222-77 57-135 111-177 205z" fill="url(#wingA)"/>
    <path d="M230 276C146 258 84 218 32 158c89 15 156 45 205 100z" fill="#ed7627" opacity=".92"/>
    <path d="M282 276c84-18 146-58 198-118-89 15-156 45-205 100z" fill="#ed7627" opacity=".92"/>
    <path d="M254 118c-31 35-46 69-47 111-1 62 37 109 47 153 10-44 48-91 47-153-1-42-16-76-47-111z" fill="url(#fire)"/>
    <path d="M256 120c25 24 41 45 58 72-26-7-46-22-58-72z" fill="#ef7d21"/>
    <circle cx="256" cy="142" r="33" fill="#d46326"/>
    <path d="M263 130c32-24 56-24 78-9-25 4-43 15-58 33z" fill="#f28a23"/>
    <circle cx="274" cy="136" r="5" fill="#101010"/>
    <path d="M288 145c20 0 31 5 40 15-17 2-29-2-40-15z" fill="#3a2a1b"/>
    <path d="M165 378c53-34 118-34 182 0-48 35-122 39-182 0z" fill="#aaa08b"/>
    <path d="M130 430c70-35 170-31 252 0-64 50-185 54-252 0z" fill="#d7b274"/>
    <path d="M154 493c62-33 140-32 206 0-55 43-151 46-206 0z" fill="#9f9984"/>
    <path d="M122 520c100 118 237 64 270-46 21 91-15 175-122 208-96-28-143-88-148-162z" fill="url(#fire)"/>
  </g>
  <text x="256" y="648" text-anchor="middle" font-family="Georgia, serif" font-size="55" font-weight="700" fill="#2b164f" letter-spacing="4">INTRINSIC</text>
  <text x="256" y="704" text-anchor="middle" font-family="Georgia, serif" font-size="42" font-weight="700" fill="#2b164f" letter-spacing="2">THERAPEUTIC</text>
  <text x="256" y="750" text-anchor="middle" font-family="Georgia, serif" font-size="42" font-weight="700" fill="#2b164f" letter-spacing="2">SOLUTIONS</text>
</svg>
